<mxfile host="app.diagrams.net" modified="2024-07-08T02:21:12.747Z" agent="Mozilla/5.0 (Windows NT 10.0; Win64; x64) AppleWebKit/537.36 (KHTML, like Gecko) Chrome/126.0.0.0 Safari/537.36 Edg/126.0.0.0" version="24.6.4" etag="GGc4v3H8nGFLwaZVqgql" type="github">
  <diagram name="Page-1" id="jN26w-OewedL2Kvi__l8">
    <mxGraphModel>
      <root>
        <mxCell id="0" />
        <mxCell id="1" parent="0" />
      </root>
    </mxGraphModel>
  </diagram>
</mxfile>
